# xmcd
#
# Track frame offsets: 
#        150
#        15085
#        31621
#        44403
#        65901
#        80601
#        101116
#        117225
#        139868
#
# Disc length: 2107 seconds
#
# Revision: 0
# Processed by: cddbd v1.5.2PL0 Copyright (c) Steve Scherf et al.
# Submitted via: ExactAudioCopy v0.99pb5
#
DISCID=71083909
DTITLE=Simona Molinari - Croce e delizia
DYEAR=2010
DGENRE=Soul
TTITLE0=Croce e delizia
TTITLE1=Amore a prima vista ft. Ornella Vanoni
TTITLE2=Single per l'estate
TTITLE3=Eclissi
TTITLE4=Mettici più verve
TTITLE5=How insensitive (live in Hong Kong)
TTITLE6=Maschere
TTITLE7=Portate gli uomini
TTITLE8=Tutto il rumore del mondo ft. Solis String Quartet
EXTD=
EXTT0=
EXTT1=
EXTT2=
EXTT3=
EXTT4=
EXTT5=
EXTT6=
EXTT7=
EXTT8=
PLAYORDER=
